<svg viewBox="0 0 1440 199" xml:space="preserve" xmlns="http://www.w3.org/2000/svg" width="100%" height="100%" fill="#f24711" opacity="1">
  <path xmlns="http://www.w3.org/2000/svg" d="M566.9 144.9c-2.2 6.5-6.3 12.1-11.9 16-5.5 4-12.2 6.1-19 6-4.6.1-9.2-.8-13.3-2.6-4.2-1.9-7.9-4.6-10.9-8.1-6.4-7.2-9.5-16.4-9.5-27.6 0-11.2 3.2-20.5 9.6-27.6 3-3.5 6.7-6.2 10.9-8.1 4.2-1.9 8.7-2.8 13.3-2.7 7.3-.1 14.3 2.3 20.1 6.7 5.4 4.1 9.3 9.9 11.1 16.5l35-7.6c-1.6-8.4-5.2-16.2-10.5-22.9-6.3-7.9-14.5-14-23.8-17.9-10.2-4.3-21.2-6.4-32.3-6.3-13-.3-25.8 2.7-37.3 8.6-10.6 5.6-19.3 14.1-25.2 24.5-6.2 11.2-9.3 23.8-9 36.5-.2 12.7 2.9 25.3 9.1 36.4 5.9 10.4 14.7 19 25.3 24.6 11.4 5.9 24.1 8.9 37 8.6 11 .2 21.9-1.9 32-6.2 9.3-3.9 17.5-10 23.9-17.8 5.1-6.3 8.8-13.7 10.6-21.6l-35.2-7.4zM173.3 62.8h37.6v18h2.8c2.9-6.1 7.5-11.3 13.2-14.9 5.7-3.6 12.4-5.6 19.1-5.6 5.2-.1 10.3 1.1 14.9 3.3v34.1c-3.6-1.6-7.3-2.8-11.2-3.6-3.4-.8-6.9-1.2-10.4-1.3-3.9-.1-7.8.7-11.3 2.3-3.5 1.6-6.6 4.1-9 7.2-5.1 6.3-7.7 14.5-7.7 24.6v67.2h-38.1V62.8zm101.3-24.5c-4.1-4.3-6.4-10.1-6.4-16 0-6 2.3-11.7 6.4-16 4.5-4 10.4-6.3 16.5-6.3s11.9 2.2 16.5 6.3c4.1 4.3 6.4 10.1 6.4 16 0 6-2.3 11.7-6.4 16-4.5 4-10.4 6.3-16.5 6.3s-12-2.2-16.5-6.3zm-2.5 24.5h38.1v131.3h-38.1V62.8zm79.5 122.6c-7.9-8.6-11.8-19.8-11.8-33.6V90.5h-18.5V62.9c23.5-14.1 26.4-28.7 27-41.5h29.8s3.5 24.2-13 41.5h42.8v27.6h-30.1v59.7c-.3 4.9 1.5 9.8 4.8 13.5 1.6 1.7 3.6 3 5.8 3.9 2.2.9 4.5 1.3 6.9 1.1 4.6-.1 9.2-.6 13.6-1.7v27.1c-4.1 1.3-8.3 2.3-12.6 3-4.3.7-8.7 1.1-13.1 1.2-13.2-.1-23.7-4.4-31.6-12.9zm70-147.1c-4.1-4.3-6.4-10.1-6.4-16 0-6 2.3-11.7 6.4-16 4.5-4 10.4-6.3 16.5-6.3s11.9 2.2 16.5 6.3c4.1 4.3 6.4 10.1 6.4 16 0 6-2.3 11.7-6.4 16-4.5 4-10.4 6.3-16.5 6.3-6.2 0-12-2.2-16.5-6.3zM419 62.8h38.1v131.3H419V62.8zm202.6 124.5c-8.3-6.7-12.5-16-12.5-27.6 0-24.8 20.7-39.8 62.2-44.9l28-3.2v-5.4c.1-2.8-.4-5.7-1.5-8.3-1.1-2.6-2.7-5-4.8-6.9-4.2-3.8-10.1-5.8-17.6-5.8-7 0-12.7 1.8-17 5.5s-6.3 8.8-6.2 15.3H615c0-14.4 5.5-25.8 16.6-34.4 11.1-8.6 25.8-12.8 44.3-12.8 18.7 0 33.6 4.4 44.7 13.2 11.1 8.8 16.7 20.6 16.7 35.5v86.7h-38.1v-16.7h-2.6c-4.1 6.5-10.1 11.7-17.1 14.9-7.9 3.6-16.4 5.3-25.1 5.2-13.5-.1-24.5-3.5-32.8-10.3zm68.8-22.9c2.9-2.6 5.2-5.7 6.8-9.3 1.6-3.5 2.3-7.4 2.2-11.3v-9.2l-27 3.3c-8.9 1-15.5 3.2-19.7 6.5-1.9 1.4-3.5 3.2-4.6 5.3-1.1 2.1-1.7 4.4-1.7 6.8-.1 2.2.4 4.5 1.3 6.5 1 2 2.4 3.8 4.2 5.2 3.7 2.8 8.8 4.2 15.3 4.2 9.5.2 17.2-2.6 23.2-8zM748.5 3.8h38.1v190.3h-38.1V3.8zm332.1 183.5c-8.3-6.7-12.5-16-12.5-27.6 0-24.8 20.7-39.8 62.2-44.9l28-3.3V106c.1-2.8-.4-5.7-1.5-8.3-1.1-2.6-2.7-5-4.8-6.9-4.2-3.8-10.1-5.8-17.6-5.8-7 0-12.7 1.8-17 5.5-4.3 3.7-6.3 8.8-6.2 15.3h-37.3c0-14.4 5.5-25.8 16.6-34.4s25.8-12.8 44.3-12.8c18.7 0 33.6 4.4 44.7 13.2 11.1 8.8 16.7 20.6 16.7 35.5v86.8h-38.1v-16.7h-2.6c-4.1 6.5-10 11.7-17.1 14.9-7.9 3.6-16.4 5.3-25.1 5.2-13.4 0-24.4-3.4-32.7-10.2zm68.8-22.9c2.9-2.6 5.2-5.7 6.8-9.3 1.6-3.5 2.3-7.4 2.2-11.3v-9.2l-27 3.3c-8.9 1-15.4 3.2-19.7 6.5-1.9 1.4-3.5 3.2-4.6 5.3-1.1 2.1-1.7 4.4-1.7 6.8-.1 2.2.4 4.5 1.3 6.5 1 2 2.4 3.8 4.2 5.2 3.7 2.8 8.8 4.2 15.3 4.2 9.5.2 17.2-2.6 23.2-8zm73.3 21.4c-11.1-8.6-16.7-20.5-16.7-35.5h33.7c-.1 3.3.6 6.5 2 9.4 1.4 2.9 3.5 5.5 6.1 7.5 5.4 4.3 12.7 6.4 22 6.4 7.2 0 13-1.5 17.3-4.4 2-1.2 3.7-3 4.9-5 1.1-2.1 1.7-4.4 1.7-6.8 0-5.5-2.4-9.1-7.2-10.9-4.8-1.8-12.3-3.2-22.4-4.2-9.5-.9-18.9-2.5-28.2-4.7-7.6-1.9-14.4-5.9-19.9-11.4-5.7-5.6-8.5-13.7-8.5-24.2-.2-6.2 1.2-12.4 4-18s6.9-10.4 12.1-13.9c10.7-7.9 24.9-11.9 42.5-11.9 10.7-.2 21.3 1.7 31.4 5.4 8.5 3.1 16 8.4 21.6 15.5 5.1 6.7 7.9 15 7.7 23.5h-34.6c0-2.7-.7-5.4-2-7.9-1.3-2.4-3.1-4.5-5.4-6.1-4.7-3.5-10.9-5.2-18.6-5.2-7 0-12.7 1.4-17 4.2-2 1.2-3.6 2.8-4.8 4.8-1.1 2-1.7 4.3-1.7 6.6-.1 1.7.3 3.4 1.1 4.9.8 1.5 2 2.8 3.4 3.7 3.1 2 6.6 3.4 10.3 4 3.9.7 10.4 1.5 19.7 2.6 9 .9 17.9 2.7 26.6 5.2 7.4 2.1 14 6.2 19.3 11.8 5.2 5.6 7.8 13.2 7.8 22.9 0 14-5.5 25-16.6 32.8-11.1 7.9-26.3 11.8-45.7 11.8-19.4.1-34.8-4.3-45.9-12.9zm130.1 0c-11.2-8.6-16.7-20.5-16.7-35.5h33.7c-.1 3.3.6 6.5 2 9.4 1.4 2.9 3.5 5.5 6.1 7.5 5.4 4.3 12.7 6.4 22 6.4 7.2 0 13-1.5 17.3-4.4 2-1.2 3.7-3 4.9-5 1.2-2.1 1.7-4.4 1.7-6.8 0-5.5-2.4-9.1-7.2-10.9-4.8-1.8-12.3-3.2-22.4-4.2-9.5-.9-18.9-2.5-28.2-4.7-7.6-1.9-14.4-5.9-19.9-11.4-5.7-5.6-8.5-13.7-8.5-24.2-.2-6.2 1.2-12.4 4-18s6.9-10.4 12.1-14c10.7-7.9 24.9-11.9 42.5-11.9 10.7-.2 21.3 1.7 31.4 5.4 8.5 3.1 16 8.4 21.6 15.5 5.1 6.7 7.8 15 7.7 23.5h-34.6c0-2.7-.7-5.4-2-7.9-1.3-2.4-3.1-4.5-5.3-6.1-4.7-3.5-10.9-5.2-18.6-5.2-7 0-12.7 1.4-17 4.2-2 1.2-3.6 2.8-4.8 4.9s-1.7 4.3-1.7 6.6c-.1 1.7.3 3.4 1.1 4.9.8 1.5 2 2.8 3.4 3.7 3.1 2 6.6 3.4 10.3 4 3.8.7 10.4 1.5 19.7 2.6 9 .9 17.9 2.7 26.6 5.2 7.4 2.1 14 6.2 19.3 11.8 5.2 5.6 7.8 13.2 7.8 22.9 0 14-5.5 25-16.6 32.8-11 7.9-26.3 11.8-45.7 11.8-19.6.1-34.9-4.3-46-12.9zM125.7 130.7c-3.3 8.9-9.1 16.6-16.7 22.3-9 7-20.1 10.7-31.4 10.6-10.2.2-20.2-2.5-28.9-7.7-8.5-5.2-15.4-12.6-19.8-21.5-4.8-9.8-7.3-20.6-7.1-31.5-.2-10.9 2.2-21.7 7.1-31.4 4.4-8.9 11.3-16.3 19.8-21.4 8.7-5.2 18.7-7.9 28.9-7.7 11.6-.1 22.9 3.7 32 10.9 7.7 5.9 13.5 14 16.5 23.2l37.6-13.7c-2.9-8.1-7.2-15.7-12.7-22.5-8.7-10.7-19.7-19.1-32.2-24.7-13.2-6-27.5-9-42-8.8C59.3 6.5 42 10.7 26.6 19 11.9 26.8-.2 38.6-8.4 53-16.6 68.3-21 85.4-21 102.8s4.3 34.5 12.6 49.9c8.2 14.4 20.2 26.2 34.8 34.1 15.4 8.2 32.7 12.4 50.2 12.1 14.7.1 29.2-2.8 42.7-8.6 12.5-5.3 23.6-13.6 32.2-24.1 5.4-6.5 9.5-13.8 12.4-21.7l-38.2-13.8zm718-119.2h59.1L951 134.2h2.6l47.7-122.7h59.6v182.6h-41.6V68.5h-2.6l-47 125.6h-34.6l-47-125.6h-2.6v125.6h-41.6l-.2-182.6z"></path>
</svg>